<?xml version="1.0" encoding="UTF-8"?>
<!DOCTYPE svg PUBLIC "-//W3C//DTD SVG 1.1//EN" "http://www.w3.org/Graphics/SVG/1.1/DTD/svg11.dtd">
<svg xmlns="http://www.w3.org/2000/svg" version="1.1" width="225px" height="224px" style="shape-rendering:geometricPrecision; text-rendering:geometricPrecision; image-rendering:optimizeQuality; fill-rule:evenodd; clip-rule:evenodd" xmlns:xlink="http://www.w3.org/1999/xlink">
<g><path style="opacity:1" fill="#9d5228" d="M 99.5,-0.5 C 108.167,-0.5 116.833,-0.5 125.5,-0.5C 133.562,0.851435 141.562,2.85143 149.5,5.5C 149.5,5.83333 149.5,6.16667 149.5,6.5C 142.5,6.56663 135.833,5.23329 129.5,2.5C 120.976,4.61637 112.309,5.78303 103.5,6C 105.343,6.1587 106.009,6.6587 105.5,7.5C 104.167,7.5 102.833,7.5 101.5,7.5C 100.5,7.5 99.5,7.5 98.5,7.5C 93.2663,6.19792 87.9329,6.19792 82.5,7.5C 78.5422,7.25108 74.8756,7.91774 71.5,9.5C 70.8333,9.5 70.1667,9.5 69.5,9.5C 68.8333,9.5 68.1667,9.5 67.5,9.5C 69.0764,8.85706 70.4097,7.85706 71.5,6.5C 80.6981,3.20044 90.0315,0.867105 99.5,-0.5 Z"/></g>
<g><path style="opacity:1" fill="#bd7d57" d="M 149.5,5.5 C 154.961,7.06669 159.961,9.40002 164.5,12.5C 163.213,13.5285 162.046,13.1952 161,11.5C 156.611,9.88812 152.111,8.72146 147.5,8C 148.416,7.72158 149.082,7.22158 149.5,6.5C 149.5,6.16667 149.5,5.83333 149.5,5.5 Z"/></g>
<g><path style="opacity:0.929" fill="#c79261" d="M 71.5,6.5 C 70.4097,7.85706 69.0764,8.85706 67.5,9.5C 65.4855,10.9238 63.1522,11.5905 60.5,11.5C 63.7403,9.04904 67.4069,7.38237 71.5,6.5 Z"/></g>
<g><path style="opacity:1" fill="#fee0b6" d="M 92.5,7.5 C 91.362,16.7557 91.1954,26.0891 92,35.5C 92.3071,38.8762 94.1405,40.2096 97.5,39.5C 97.458,30.1906 97.458,20.8573 97.5,11.5C 97.2483,9.92714 96.5817,8.5938 95.5,7.5C 96.5,7.5 97.5,7.5 98.5,7.5C 99.5,7.5 100.5,7.5 101.5,7.5C 100.96,18.5604 100.294,29.5604 99.5,40.5C 96.5,40.5 93.5,40.5 90.5,40.5C 89.791,39.596 88.791,39.2627 87.5,39.5C 87.5,28.8333 87.5,18.1667 87.5,7.5C 89.1667,7.5 90.8333,7.5 92.5,7.5 Z"/></g>
<g><path style="opacity:1" fill="#fdeacc" d="M 92.5,7.5 C 93.5,7.5 94.5,7.5 95.5,7.5C 96.5817,8.5938 97.2483,9.92714 97.5,11.5C 97.458,20.8573 97.458,30.1906 97.5,39.5C 94.1405,40.2096 92.3071,38.8762 92,35.5C 91.1954,26.0891 91.362,16.7557 92.5,7.5 Z"/></g>
<g><path style="opacity:1" fill="#b35922" d="M 149.5,6.5 C 149.082,7.22158 148.416,7.72158 147.5,8C 152.111,8.72146 156.611,9.88812 161,11.5C 162.046,13.1952 163.213,13.5285 164.5,12.5C 164.5,13.1667 164.5,13.8333 164.5,14.5C 161.781,14.6025 159.115,14.2692 156.5,13.5C 153.037,14.3594 149.537,15.026 146,15.5C 141.981,15.088 137.814,15.088 133.5,15.5C 128.717,14.1383 124.05,12.4716 119.5,10.5C 115.524,9.70479 111.524,9.03813 107.5,8.5C 106.508,8.67158 105.842,8.33825 105.5,7.5C 106.009,6.6587 105.343,6.1587 103.5,6C 112.309,5.78303 120.976,4.61637 129.5,2.5C 135.833,5.23329 142.5,6.56663 149.5,6.5 Z"/></g>
<g><path style="opacity:1" fill="#fbcf94" d="M 98.5,7.5 C 97.5,7.5 96.5,7.5 95.5,7.5C 94.5,7.5 93.5,7.5 92.5,7.5C 90.8333,7.5 89.1667,7.5 87.5,7.5C 87.5,18.1667 87.5,28.8333 87.5,39.5C 88.791,39.2627 89.791,39.596 90.5,40.5C 85.7283,41.3971 83.3949,39.3971 83.5,34.5C 83.8333,33.8333 84.1667,33.1667 84.5,32.5C 83.8031,24.1682 83.1365,15.8349 82.5,7.5C 87.9329,6.19792 93.2663,6.19792 98.5,7.5 Z"/></g>
<g><path style="opacity:1" fill="#fabe69" d="M 82.5,7.5 C 83.1365,15.8349 83.8031,24.1682 84.5,32.5C 84.1667,33.1667 83.8333,33.8333 83.5,34.5C 83.3949,39.3971 85.7283,41.3971 90.5,40.5C 93.5,40.5 96.5,40.5 99.5,40.5C 101.833,40.5 104.167,40.5 106.5,40.5C 107.507,31.856 107.673,23.1894 107,14.5C 105.446,12.5111 105.613,10.5111 107.5,8.5C 111.524,9.03813 115.524,9.70479 119.5,10.5C 119.5,11.1667 119.167,11.5 118.5,11.5C 116.355,11.7377 114.688,12.7377 113.5,14.5C 113.808,15.3081 114.308,15.9747 115,16.5C 115.362,24.1192 115.528,31.6192 115.5,39C 113.138,40.7313 110.471,41.5646 107.5,41.5C 106.833,41.5 106.167,41.5 105.5,41.5C 96.8333,41.5 88.1667,41.5 79.5,41.5C 77.8709,32.8491 76.8709,24.0157 76.5,15C 79.2764,13.2213 78.9431,12.2213 75.5,12C 75.9574,11.586 76.2907,11.086 76.5,10.5C 74.9547,9.54811 73.288,9.21478 71.5,9.5C 74.8756,7.91774 78.5422,7.25108 82.5,7.5 Z"/></g>
<g><path style="opacity:1" fill="#f6a83d" d="M 69.5,9.5 C 70.1667,9.5 70.8333,9.5 71.5,9.5C 73.288,9.21478 74.9547,9.54811 76.5,10.5C 76.2907,11.086 75.9574,11.586 75.5,12C 78.9431,12.2213 79.2764,13.2213 76.5,15C 76.8709,24.0157 77.8709,32.8491 79.5,41.5C 77.3926,42.4682 75.0593,42.8016 72.5,42.5C 69.3837,42.2886 66.5503,41.9553 64,41.5C 64.2064,36.3324 63.0398,31.6657 60.5,27.5C 61.325,26.6143 62.325,26.281 63.5,26.5C 63.5,24.8333 63.5,23.1667 63.5,21.5C 55.9038,20.9206 55.9038,19.2539 63.5,16.5C 62.624,15.7492 61.624,15.2492 60.5,15C 63.8513,13.4223 66.8513,11.589 69.5,9.5 Z"/></g>
<g><path style="opacity:1" fill="#f8b55b" d="M 118.5,11.5 C 120.32,13.4484 122.654,14.4484 125.5,14.5C 124.968,21.0594 125.635,27.3927 127.5,33.5C 127.081,34.6721 126.415,35.6721 125.5,36.5C 128.18,39.147 127.513,40.4804 123.5,40.5C 123.5,41.5 123.5,42.5 123.5,43.5C 117.886,43.927 112.553,43.2604 107.5,41.5C 110.471,41.5646 113.138,40.7313 115.5,39C 115.528,31.6192 115.362,24.1192 115,16.5C 114.308,15.9747 113.808,15.3081 113.5,14.5C 114.688,12.7377 116.355,11.7377 118.5,11.5 Z"/></g>
<g><path style="opacity:0.522" fill="#f0c28d" d="M 53.5,15.5 C 52.1979,17.8218 50.1979,19.1551 47.5,19.5C 49.1475,17.6736 51.1475,16.3403 53.5,15.5 Z"/></g>
<g><path style="opacity:1" fill="#fdce89" d="M 101.5,7.5 C 102.833,7.5 104.167,7.5 105.5,7.5C 105.842,8.33825 106.508,8.67158 107.5,8.5C 105.613,10.5111 105.446,12.5111 107,14.5C 107.673,23.1894 107.507,31.856 106.5,40.5C 104.167,40.5 101.833,40.5 99.5,40.5C 100.294,29.5604 100.96,18.5604 101.5,7.5 Z"/></g>
<g><path style="opacity:1" fill="#c96529" d="M 164.5,14.5 C 168.357,15.0656 171.023,17.0656 172.5,20.5C 171.417,20.4606 170.417,20.1272 169.5,19.5C 168.614,20.325 168.281,21.325 168.5,22.5C 164.495,22.4435 160.995,21.1101 158,18.5C 153.514,21.6629 148.68,22.3296 143.5,20.5C 142.391,20.4431 141.391,20.1098 140.5,19.5C 138.95,18.5592 137.284,17.8925 135.5,17.5C 134.833,16.8333 134.167,16.1667 133.5,15.5C 137.814,15.088 141.981,15.088 146,15.5C 149.537,15.026 153.037,14.3594 156.5,13.5C 159.115,14.2692 161.781,14.6025 164.5,14.5 Z"/></g>
<g><path style="opacity:1" fill="#cc8354" d="M 164.5,12.5 C 172.198,15.3428 178.865,19.6761 184.5,25.5C 180.729,23.425 176.729,21.7584 172.5,20.5C 171.023,17.0656 168.357,15.0656 164.5,14.5C 164.5,13.8333 164.5,13.1667 164.5,12.5 Z"/></g>
<g><path style="opacity:0.565" fill="#e8ad7a" d="M 46.5,20.5 C 45.8333,21.5 45.1667,22.5 44.5,23.5C 42.0905,24.7007 40.0905,26.3674 38.5,28.5C 37.609,29.1098 36.609,29.4431 35.5,29.5C 38.6067,25.7847 42.2733,22.7847 46.5,20.5 Z"/></g>
<g><path style="opacity:1" fill="#f7a84d" d="M 119.5,10.5 C 124.05,12.4716 128.717,14.1383 133.5,15.5C 134.167,16.1667 134.833,16.8333 135.5,17.5C 135.423,18.7498 134.756,19.5831 133.5,20C 134.938,30.7021 136.271,41.2021 137.5,51.5C 134.603,50.871 131.936,49.871 129.5,48.5C 125.726,45.8393 121.393,44.8393 116.5,45.5C 112.167,45.5 107.833,45.5 103.5,45.5C 104.058,44.2101 105.058,43.3768 106.5,43C 105.944,42.6174 105.611,42.1174 105.5,41.5C 106.167,41.5 106.833,41.5 107.5,41.5C 112.553,43.2604 117.886,43.927 123.5,43.5C 123.5,42.5 123.5,41.5 123.5,40.5C 127.513,40.4804 128.18,39.147 125.5,36.5C 126.415,35.6721 127.081,34.6721 127.5,33.5C 125.635,27.3927 124.968,21.0594 125.5,14.5C 122.654,14.4484 120.32,13.4484 118.5,11.5C 119.167,11.5 119.5,11.1667 119.5,10.5 Z"/></g>
<g><path style="opacity:1" fill="#f49d40" d="M 135.5,17.5 C 137.284,17.8925 138.95,18.5592 140.5,19.5C 140.586,20.4959 140.252,21.3292 139.5,22C 142.794,23.3419 144.128,25.8419 143.5,29.5C 146.957,29.6672 147.29,30.6672 144.5,32.5C 144.101,38.2607 143.101,43.7607 141.5,49C 142.819,50.6279 144.152,50.4613 145.5,48.5C 146.386,49.325 146.719,50.325 146.5,51.5C 142.412,51.2184 141.912,51.8851 145,53.5C 146.895,51.8179 149.062,51.3179 151.5,52C 149.84,53.4877 148.84,55.321 148.5,57.5C 144.665,55.7505 140.999,53.7505 137.5,51.5C 136.271,41.2021 134.938,30.7021 133.5,20C 134.756,19.5831 135.423,18.7498 135.5,17.5 Z"/></g>
<g><path style="opacity:1" fill="#f29334" d="M 55.5,48.5 C 53.326,48.7497 51.6594,49.7497 50.5,51.5C 49.5416,51.0472 48.7083,50.3805 48,49.5C 47.8089,43.9171 47.3089,38.4171 46.5,33C 47.6399,29.7787 47.3066,26.6121 45.5,23.5C 48.5254,21.5026 51.5254,19.5026 54.5,17.5C 55.723,16.3861 57.0563,16.2195 58.5,17C 55.0471,20.248 54.0471,23.748 55.5,27.5C 54.8333,27.8333 54.1667,28.1667 53.5,28.5C 55.2744,29.1867 56.9411,30.0201 58.5,31C 57.9747,31.6924 57.3081,32.1924 56.5,32.5C 55.5052,37.7921 55.1718,43.1254 55.5,48.5 Z"/></g>
<g><path style="opacity:1" fill="#f49c3a" d="M 67.5,9.5 C 68.1667,9.5 68.8333,9.5 69.5,9.5C 66.8513,11.589 63.8513,13.4223 60.5,15C 61.624,15.2492 62.624,15.7492 63.5,16.5C 55.9038,19.2539 55.9038,20.9206 63.5,21.5C 63.5,23.1667 63.5,24.8333 63.5,26.5C 62.325,26.281 61.325,26.6143 60.5,27.5C 63.0398,31.6657 64.2064,36.3324 64,41.5C 66.5503,41.9553 69.3837,42.2886 72.5,42.5C 67.669,46.4464 62.0023,48.4464 55.5,48.5C 55.1718,43.1254 55.5052,37.7921 56.5,32.5C 57.3081,32.1924 57.9747,31.6924 58.5,31C 56.9411,30.0201 55.2744,29.1867 53.5,28.5C 54.1667,28.1667 54.8333,27.8333 55.5,27.5C 54.0471,23.748 55.0471,20.248 58.5,17C 57.0563,16.2195 55.723,16.3861 54.5,17.5C 51.5254,19.5026 48.5254,21.5026 45.5,23.5C 45.1667,23.5 44.8333,23.5 44.5,23.5C 45.1667,22.5 45.8333,21.5 46.5,20.5C 46.5,19.8333 46.8333,19.5 47.5,19.5C 50.1979,19.1551 52.1979,17.8218 53.5,15.5C 55.6626,13.9172 57.9959,12.5839 60.5,11.5C 63.1522,11.5905 65.4855,10.9238 67.5,9.5 Z"/></g>
<g><path style="opacity:1" fill="#e4762e" d="M 172.5,20.5 C 176.729,21.7584 180.729,23.425 184.5,25.5C 185.5,25.8333 186.167,26.5 186.5,27.5C 185.07,27.5792 183.736,27.2458 182.5,26.5C 181.614,27.325 181.281,28.325 181.5,29.5C 174.302,31.1878 166.969,31.8545 159.5,31.5C 158.5,31.5 157.5,31.5 156.5,31.5C 151.819,28.0295 147.486,24.3629 143.5,20.5C 148.68,22.3296 153.514,21.6629 158,18.5C 160.995,21.1101 164.495,22.4435 168.5,22.5C 168.281,21.325 168.614,20.325 169.5,19.5C 170.417,20.1272 171.417,20.4606 172.5,20.5 Z"/></g>
<g><path style="opacity:1" fill="#f19233" d="M 140.5,19.5 C 141.391,20.1098 142.391,20.4431 143.5,20.5C 147.486,24.3629 151.819,28.0295 156.5,31.5C 157.087,37.3027 156.42,42.8027 154.5,48C 157.281,50.1117 157.615,52.2783 155.5,54.5C 155.833,55.1667 156.167,55.8333 156.5,56.5C 154.004,58.5619 151.337,58.8953 148.5,57.5C 148.84,55.321 149.84,53.4877 151.5,52C 149.062,51.3179 146.895,51.8179 145,53.5C 141.912,51.8851 142.412,51.2184 146.5,51.5C 146.719,50.325 146.386,49.325 145.5,48.5C 144.152,50.4613 142.819,50.6279 141.5,49C 143.101,43.7607 144.101,38.2607 144.5,32.5C 147.29,30.6672 146.957,29.6672 143.5,29.5C 144.128,25.8419 142.794,23.3419 139.5,22C 140.252,21.3292 140.586,20.4959 140.5,19.5 Z"/></g>
<g><path style="opacity:1" fill="#f08232" d="M 186.5,27.5 C 186.298,29.9892 186.798,32.3225 188,34.5C 188.704,32.273 189.871,31.9397 191.5,33.5C 191.343,34.8734 191.51,36.2068 192,37.5C 192.893,36.2888 193.726,36.2888 194.5,37.5C 193.975,38.1924 193.308,38.6924 192.5,39C 187.167,39.3333 181.833,39.6667 176.5,40C 174.76,41.827 173.093,41.6603 171.5,39.5C 169.53,40.4431 168.03,39.7764 167,37.5C 166.617,38.056 166.117,38.3893 165.5,38.5C 163.055,36.5956 161.055,34.2622 159.5,31.5C 166.969,31.8545 174.302,31.1878 181.5,29.5C 181.281,28.325 181.614,27.325 182.5,26.5C 183.736,27.2458 185.07,27.5792 186.5,27.5 Z"/></g>
<g><path style="opacity:1" fill="#e58e4f" d="M 186.5,27.5 C 190.1,29.4302 193.1,32.0969 195.5,35.5C 193.801,35.4729 192.467,34.8062 191.5,33.5C 189.871,31.9397 188.704,32.273 188,34.5C 186.798,32.3225 186.298,29.9892 186.5,27.5 Z"/></g>
<g><path style="opacity:1" fill="#f18834" d="M 44.5,23.5 C 44.8333,23.5 45.1667,23.5 45.5,23.5C 47.3066,26.6121 47.6399,29.7787 46.5,33C 47.3089,38.4171 47.8089,43.9171 48,49.5C 48.7083,50.3805 49.5416,51.0472 50.5,51.5C 51.7383,51.81 51.7383,52.31 50.5,53C 45.3193,55.5725 40.986,59.0725 37.5,63.5C 37.1667,63.5 36.8333,63.5 36.5,63.5C 36.393,61.0968 37.393,59.2635 39.5,58C 38.2068,57.51 36.8734,57.3433 35.5,57.5C 35.3379,55.4727 35.5045,53.4727 36,51.5C 36.3333,51.8333 36.6667,52.1667 37,52.5C 37.2362,50.236 37.7362,48.0693 38.5,46C 37.8035,42.306 37.4702,38.6393 37.5,35C 38.13,33.108 39.13,31.4413 40.5,30C 39.5842,29.7216 38.9175,29.2216 38.5,28.5C 40.0905,26.3674 42.0905,24.7007 44.5,23.5 Z"/></g>
<g><path style="opacity:0.667" fill="#e6ab84" d="M 30.5,34.5 C 30.2671,36.0618 29.6005,37.3951 28.5,38.5C 26.3946,41.027 24.0613,43.3603 21.5,45.5C 23.3717,40.9568 26.3717,37.2901 30.5,34.5 Z"/></g>
<g><path style="opacity:1" fill="#d87b30" d="M 156.5,31.5 C 157.5,31.5 158.5,31.5 159.5,31.5C 161.055,34.2622 163.055,36.5956 165.5,38.5C 166.982,41.6223 168.649,44.6223 170.5,47.5C 168.365,47.147 167.032,47.9803 166.5,50C 167.881,52.1349 168.881,54.4682 169.5,57C 166.818,60.632 166.484,64.2986 168.5,68C 168,69.5 167.5,71 167,72.5C 165.041,71.2519 163.541,69.5852 162.5,67.5C 161.583,66.8728 160.583,66.5394 159.5,66.5C 155.61,63.7286 151.943,60.7286 148.5,57.5C 151.337,58.8953 154.004,58.5619 156.5,56.5C 156.167,55.8333 155.833,55.1667 155.5,54.5C 157.615,52.2783 157.281,50.1117 154.5,48C 156.42,42.8027 157.087,37.3027 156.5,31.5 Z"/></g>
<g><path style="opacity:1" fill="#f18d35" d="M 191.5,33.5 C 192.467,34.8062 193.801,35.4729 195.5,35.5C 196.356,38.2005 197.856,40.5338 200,42.5C 200.765,44.0657 200.598,45.3991 199.5,46.5C 197.072,47.2122 194.739,48.2122 192.5,49.5C 191.252,48.9598 190.085,48.2931 189,47.5C 183.15,48.6501 177.317,48.6501 171.5,47.5C 171.167,47.5 170.833,47.5 170.5,47.5C 168.649,44.6223 166.982,41.6223 165.5,38.5C 166.117,38.3893 166.617,38.056 167,37.5C 168.03,39.7764 169.53,40.4431 171.5,39.5C 173.093,41.6603 174.76,41.827 176.5,40C 181.833,39.6667 187.167,39.3333 192.5,39C 193.308,38.6924 193.975,38.1924 194.5,37.5C 193.726,36.2888 192.893,36.2888 192,37.5C 191.51,36.2068 191.343,34.8734 191.5,33.5 Z"/></g>
<g><path style="opacity:1" fill="#ee7d33" d="M 38.5,28.5 C 38.9175,29.2216 39.5842,29.7216 40.5,30C 39.13,31.4413 38.13,33.108 37.5,35C 37.4702,38.6393 37.8035,42.306 38.5,46C 37.7362,48.0693 37.2362,50.236 37,52.5C 36.6667,52.1667 36.3333,51.8333 36,51.5C 35.5045,53.4727 35.3379,55.4727 35.5,57.5C 36.8734,57.3433 38.2068,57.51 39.5,58C 37.393,59.2635 36.393,61.0968 36.5,63.5C 33.6063,64.953 31.9397,67.2864 31.5,70.5C 29.5201,71.4839 27.8534,72.8173 26.5,74.5C 27.3173,71.3815 28.3173,68.3815 29.5,65.5C 28.325,65.719 27.325,65.3857 26.5,64.5C 27.3925,58.2894 28.3925,52.1228 29.5,46C 28.8333,45.6667 28.1667,45.3333 27.5,45C 27.1982,42.9587 27.5316,40.7921 28.5,38.5C 29.6005,37.3951 30.2671,36.0618 30.5,34.5C 31.8333,32.5 33.5,30.8333 35.5,29.5C 36.609,29.4431 37.609,29.1098 38.5,28.5 Z"/></g>
<g><path style="opacity:1" fill="#f3993f" d="M 79.5,41.5 C 88.1667,41.5 96.8333,41.5 105.5,41.5C 105.611,42.1174 105.944,42.6174 106.5,43C 105.058,43.3768 104.058,44.2101 103.5,45.5C 98.8137,46.0373 94.147,46.704 89.5,47.5C 85.4601,47.6751 81.6268,48.6751 78,50.5C 76.8926,50.4148 75.8926,50.0814 75,49.5C 72.3225,50.92 69.6558,52.2533 67,53.5C 64.9658,53.6464 63.2991,52.9797 62,51.5C 58.845,52.7485 56.0117,54.5818 53.5,57C 51.1667,57.3333 48.8333,57.6667 46.5,58C 43.5917,59.9779 40.5917,61.8113 37.5,63.5C 40.986,59.0725 45.3193,55.5725 50.5,53C 51.7383,52.31 51.7383,51.81 50.5,51.5C 51.6594,49.7497 53.326,48.7497 55.5,48.5C 62.0023,48.4464 67.669,46.4464 72.5,42.5C 75.0593,42.8016 77.3926,42.4682 79.5,41.5 Z"/></g>
<g><path style="opacity:0.753" fill="#ecc184" d="M 116.5,45.5 C 121.393,44.8393 125.726,45.8393 129.5,48.5C 125.015,47.6604 120.681,46.6604 116.5,45.5 Z"/></g>
<g><path style="opacity:1" fill="#f49a38" d="M 199.5,46.5 C 202.367,47.5121 204.367,49.5121 205.5,52.5C 205.66,54.1992 205.494,55.8659 205,57.5C 202.571,56.9707 200.738,55.6374 199.5,53.5C 198.284,55.7659 196.784,57.7659 195,59.5C 193.831,58.9915 192.998,58.1581 192.5,57C 193.76,55.1862 193.76,53.3529 192.5,51.5C 191.534,53.396 191.201,55.396 191.5,57.5C 188.552,57.2229 185.719,57.5562 183,58.5C 182.333,57.8333 181.667,57.1667 181,56.5C 180.796,59.8609 180.963,63.1942 181.5,66.5C 180.833,65.5 180.167,64.5 179.5,63.5C 177.358,57.8832 174.692,52.5499 171.5,47.5C 177.317,48.6501 183.15,48.6501 189,47.5C 190.085,48.2931 191.252,48.9598 192.5,49.5C 194.739,48.2122 197.072,47.2122 199.5,46.5 Z"/></g>
<g><path style="opacity:1" fill="#f4a04f" d="M 89.5,47.5 C 74.8468,53.1586 63.1801,62.492 54.5,75.5C 53.5084,75.3284 52.8417,75.6618 52.5,76.5C 51.5,76.5 50.5,76.5 49.5,76.5C 49.1715,72.646 49.8382,68.9793 51.5,65.5C 51.1667,64.8333 50.8333,64.1667 50.5,63.5C 48.6984,66.478 46.1984,68.478 43,69.5C 41.3419,69.3248 40.0086,68.6582 39,67.5C 36.8063,69.1778 34.3063,70.1778 31.5,70.5C 31.9397,67.2864 33.6063,64.953 36.5,63.5C 36.8333,63.5 37.1667,63.5 37.5,63.5C 40.5917,61.8113 43.5917,59.9779 46.5,58C 48.8333,57.6667 51.1667,57.3333 53.5,57C 56.0117,54.5818 58.845,52.7485 62,51.5C 63.2991,52.9797 64.9658,53.6464 67,53.5C 69.6558,52.2533 72.3225,50.92 75,49.5C 75.8926,50.0814 76.8926,50.4148 78,50.5C 81.6268,48.6751 85.4601,47.6751 89.5,47.5 Z"/></g>
<g><path style="opacity:1" fill="#eba757" d="M 195.5,35.5 C 205.626,46.0721 212.96,58.4055 217.5,72.5C 215.373,71.6024 214.206,69.9357 214,67.5C 213.536,68.0944 213.369,68.7611 213.5,69.5C 212.153,66.337 210.986,63.0037 210,59.5C 209.333,60.8333 208.667,60.8333 208,59.5C 207.844,56.8091 207.011,54.4758 205.5,52.5C 204.367,49.5121 202.367,47.5121 199.5,46.5C 200.598,45.3991 200.765,44.0657 200,42.5C 197.856,40.5338 196.356,38.2005 195.5,35.5 Z"/></g>
<g><path style="opacity:0.98" fill="#be754c" d="M 21.5,45.5 C 21.0536,49.7902 19.3869,53.4569 16.5,56.5C 14.9657,59.593 12.9657,62.2597 10.5,64.5C 12.9076,57.34 16.5743,51.0067 21.5,45.5 Z"/></g>
<g><path style="opacity:1" fill="#c06628" d="M 170.5,47.5 C 170.833,47.5 171.167,47.5 171.5,47.5C 174.692,52.5499 177.358,57.8832 179.5,63.5C 178.141,62.9935 177.141,61.9935 176.5,60.5C 175.355,62.6348 175.355,64.8014 176.5,67C 176.223,68.8916 175.223,70.2249 173.5,71C 176.116,76.0703 175.782,80.9037 172.5,85.5C 168.921,78.6832 164.588,72.3499 159.5,66.5C 160.583,66.5394 161.583,66.8728 162.5,67.5C 163.541,69.5852 165.041,71.2519 167,72.5C 167.5,71 168,69.5 168.5,68C 166.484,64.2986 166.818,60.632 169.5,57C 168.881,54.4682 167.881,52.1349 166.5,50C 167.032,47.9803 168.365,47.147 170.5,47.5 Z"/></g>
<g><path style="opacity:1" fill="#f6ab3b" d="M 205.5,52.5 C 207.011,54.4758 207.844,56.8091 208,59.5C 208.667,60.8333 209.333,60.8333 210,59.5C 210.986,63.0037 212.153,66.337 213.5,69.5C 213.674,71.861 214.007,74.1944 214.5,76.5C 213.833,75.8333 213.167,75.1667 212.5,74.5C 212.17,71.8906 210.67,70.2239 208,69.5C 202.333,70.1667 196.667,70.8333 191,71.5C 188.227,69.6444 185.394,68.9778 182.5,69.5C 181.596,68.791 181.263,67.791 181.5,66.5C 180.963,63.1942 180.796,59.8609 181,56.5C 181.667,57.1667 182.333,57.8333 183,58.5C 185.719,57.5562 188.552,57.2229 191.5,57.5C 191.201,55.396 191.534,53.396 192.5,51.5C 193.76,53.3529 193.76,55.1862 192.5,57C 192.998,58.1581 193.831,58.9915 195,59.5C 196.784,57.7659 198.284,55.7659 199.5,53.5C 200.738,55.6374 202.571,56.9707 205,57.5C 205.494,55.8659 205.66,54.1992 205.5,52.5 Z"/></g>
<g><path style="opacity:1" fill="#d46b2b" d="M 28.5,38.5 C 27.5316,40.7921 27.1982,42.9587 27.5,45C 28.1667,45.3333 28.8333,45.6667 29.5,46C 28.3925,52.1228 27.3925,58.2894 26.5,64.5C 27.325,65.3857 28.325,65.719 29.5,65.5C 28.3173,68.3815 27.3173,71.3815 26.5,74.5C 23.0354,79.2806 20.0354,84.2806 17.5,89.5C 16.3047,87.2272 16.3047,84.8939 17.5,82.5C 17.2395,80.8129 16.5728,79.3129 15.5,78C 18.1165,73.5712 18.1165,69.0712 15.5,64.5C 15.4858,62.3887 16.1525,60.5553 17.5,59C 17.2568,58.0979 16.9234,57.2646 16.5,56.5C 19.3869,53.4569 21.0536,49.7902 21.5,45.5C 24.0613,43.3603 26.3946,41.027 28.5,38.5 Z"/></g>
<g><path style="opacity:1" fill="#bd5e26" d="M 16.5,56.5 C 16.9234,57.2646 17.2568,58.0979 17.5,59C 16.1525,60.5553 15.4858,62.3887 15.5,64.5C 18.1165,69.0712 18.1165,73.5712 15.5,78C 16.5728,79.3129 17.2395,80.8129 17.5,82.5C 16.3047,84.8939 16.3047,87.2272 17.5,89.5C 17.5,89.8333 17.5,90.1667 17.5,90.5C 16.5592,92.0495 15.8925,93.7162 15.5,95.5C 14.8902,96.391 14.5569,97.391 14.5,98.5C 13.8902,99.391 13.5569,100.391 13.5,101.5C 13.3404,103.153 12.6737,104.486 11.5,105.5C 11.4871,94.7323 10.4871,84.0656 8.5,73.5C 10.123,70.7847 10.7896,67.7847 10.5,64.5C 12.9657,62.2597 14.9657,59.593 16.5,56.5 Z"/></g>
<g><path style="opacity:1" fill="#f9b653" d="M 182.5,69.5 C 185.394,68.9778 188.227,69.6444 191,71.5C 196.667,70.8333 202.333,70.1667 208,69.5C 210.67,70.2239 212.17,71.8906 212.5,74.5C 205.245,74.1868 198.079,74.5201 191,75.5C 190.5,75 190,74.5 189.5,74C 187.314,73.9387 185.314,73.7721 183.5,73.5C 182.566,72.4324 182.232,71.099 182.5,69.5 Z"/></g>
<g><path style="opacity:1" fill="#fbc575" d="M 183.5,73.5 C 185.314,73.7721 187.314,73.9387 189.5,74C 190,74.5 190.5,75 191,75.5C 198.079,74.5201 205.245,74.1868 212.5,74.5C 213.167,75.1667 213.833,75.8333 214.5,76.5C 214.5,78.5 214.5,80.5 214.5,82.5C 213.466,81.3129 212.133,80.4796 210.5,80C 203.117,79.7998 195.784,79.2998 188.5,78.5C 187.264,79.2458 185.93,79.5792 184.5,79.5C 183.539,77.7354 183.205,75.7354 183.5,73.5 Z"/></g>
<g><path style="opacity:1" fill="#f5a347" d="M 52.5,76.5 C 52.2914,77.9217 51.7914,79.255 51,80.5C 49.6491,80.4456 48.4824,80.9456 47.5,82C 48.8692,85.9605 48.5359,89.7938 46.5,93.5C 45.6667,93.8333 44.8333,94.1667 44,94.5C 36.6698,93.1999 29.5032,91.5332 22.5,89.5C 20.9291,90.3094 19.2624,90.6427 17.5,90.5C 17.5,90.1667 17.5,89.8333 17.5,89.5C 20.0354,84.2806 23.0354,79.2806 26.5,74.5C 27.8534,72.8173 29.5201,71.4839 31.5,70.5C 34.3063,70.1778 36.8063,69.1778 39,67.5C 40.0086,68.6582 41.3419,69.3248 43,69.5C 46.1984,68.478 48.6984,66.478 50.5,63.5C 50.8333,64.1667 51.1667,64.8333 51.5,65.5C 49.8382,68.9793 49.1715,72.646 49.5,76.5C 50.5,76.5 51.5,76.5 52.5,76.5 Z"/></g>
<g><path style="opacity:1" fill="#fbd196" d="M 214.5,82.5 C 215.662,86.6869 215.662,91.0202 214.5,95.5C 213.579,96.981 212.412,98.3144 211,99.5C 209.941,99.3699 209.108,98.8699 208.5,98C 200.605,96.9428 192.938,97.4428 185.5,99.5C 185.5,97.1667 185.5,94.8333 185.5,92.5C 185.167,92.5 184.833,92.5 184.5,92.5C 184.5,88.1667 184.5,83.8333 184.5,79.5C 185.93,79.5792 187.264,79.2458 188.5,78.5C 195.784,79.2998 203.117,79.7998 210.5,80C 212.133,80.4796 213.466,81.3129 214.5,82.5 Z"/></g>
<g><path style="opacity:1" fill="#fde6c1" d="M 185.5,92.5 C 185.146,88.3628 185.646,84.3628 187,80.5C 187.833,81.3333 188.667,82.1667 189.5,83C 197.924,83.2287 206.258,83.3954 214.5,83.5C 215.042,87.5443 214.209,91.211 212,94.5C 211.5,94 211,93.5 210.5,93C 202.173,92.5003 193.84,92.3336 185.5,92.5 Z"/></g>
<g><path style="opacity:1" fill="#ad5621" d="M 179.5,63.5 C 180.167,64.5 180.833,65.5 181.5,66.5C 181.263,67.791 181.596,68.791 182.5,69.5C 182.232,71.099 182.566,72.4324 183.5,73.5C 183.205,75.7354 183.539,77.7354 184.5,79.5C 184.5,83.8333 184.5,88.1667 184.5,92.5C 185.175,103.785 183.175,114.451 178.5,124.5C 178.666,116.16 178.5,107.827 178,99.5C 176.411,96.693 175.911,93.8597 176.5,91C 175.756,89.9614 174.756,89.4614 173.5,89.5C 172.766,88.2921 172.433,86.9587 172.5,85.5C 175.782,80.9037 176.116,76.0703 173.5,71C 175.223,70.2249 176.223,68.8916 176.5,67C 175.355,64.8014 175.355,62.6348 176.5,60.5C 177.141,61.9935 178.141,62.9935 179.5,63.5 Z"/></g>
<g><path style="opacity:1" fill="#a75020" d="M 8.5,73.5 C 10.4871,84.0656 11.4871,94.7323 11.5,105.5C 9.90671,108.695 8.90671,112.195 8.5,116C 7.35424,116.759 6.35424,117.426 5.5,118C 4.86674,123.333 5.53341,128.666 7.5,134C 6.38175,136.059 5.71509,138.226 5.5,140.5C 1.51482,129.973 1.51482,119.306 5.5,108.5C 5.42303,106.701 4.92303,105.034 4,103.5C 3.66667,104.5 3.33333,105.5 3,106.5C 2.83333,104 2.66667,101.5 2.5,99C 5.3134,90.6625 7.3134,82.1625 8.5,73.5 Z"/></g>
<g><path style="opacity:1" fill="#f6b45e" d="M 54.5,75.5 C 51.7401,82.1175 49.4068,88.7841 47.5,95.5C 46.596,96.209 46.2627,97.209 46.5,98.5C 45.7784,98.9175 45.2784,99.5842 45,100.5C 41.5261,99.3518 38.1928,98.0185 35,96.5C 34.2753,97.0585 33.4419,97.3918 32.5,97.5C 26.9147,95.3983 21.248,94.7316 15.5,95.5C 15.8925,93.7162 16.5592,92.0495 17.5,90.5C 19.2624,90.6427 20.9291,90.3094 22.5,89.5C 29.5032,91.5332 36.6698,93.1999 44,94.5C 44.8333,94.1667 45.6667,93.8333 46.5,93.5C 48.5359,89.7938 48.8692,85.9605 47.5,82C 48.4824,80.9456 49.6491,80.4456 51,80.5C 51.7914,79.255 52.2914,77.9217 52.5,76.5C 52.8417,75.6618 53.5084,75.3284 54.5,75.5 Z"/></g>
<g><path style="opacity:0.659" fill="#b2754b" d="M 173.5,89.5 C 174.756,89.4614 175.756,89.9614 176.5,91C 175.911,93.8597 176.411,96.693 178,99.5C 178.5,107.827 178.666,116.16 178.5,124.5C 178.598,126.553 177.931,128.22 176.5,129.5C 178.25,115.917 177.25,102.584 173.5,89.5 Z"/></g>
<g><path style="opacity:1" fill="#eba45b" d="M 217.5,72.5 C 220.438,79.9799 222.771,87.6466 224.5,95.5C 224.5,98.1667 224.5,100.833 224.5,103.5C 222.96,101.162 222.294,98.4951 222.5,95.5C 221.5,95.5 220.5,95.5 219.5,95.5C 219.67,93.1516 220.003,90.8183 220.5,88.5C 219.241,83.205 218.241,77.8717 217.5,72.5 Z"/></g>
<g><path style="opacity:0.388" fill="#af8055" d="M 47.5,95.5 C 47.5405,98.8806 47.2071,102.214 46.5,105.5C 46.1667,105.5 45.8333,105.5 45.5,105.5C 45.5,104.833 45.5,104.167 45.5,103.5C 46.038,101.883 46.3713,100.216 46.5,98.5C 46.2627,97.209 46.596,96.209 47.5,95.5 Z"/></g>
<g><path style="opacity:1" fill="#fbcc80" d="M 46.5,98.5 C 46.3713,100.216 46.038,101.883 45.5,103.5C 44.1779,103.33 43.0113,103.663 42,104.5C 41.6458,102.193 40.6458,101.859 39,103.5C 30.8145,101.97 22.6479,100.303 14.5,98.5C 14.5569,97.391 14.8902,96.391 15.5,95.5C 21.248,94.7316 26.9147,95.3983 32.5,97.5C 33.4419,97.3918 34.2753,97.0585 35,96.5C 38.1928,98.0185 41.5261,99.3518 45,100.5C 45.2784,99.5842 45.7784,98.9175 46.5,98.5 Z"/></g>
<g><path style="opacity:1" fill="#fddc9a" d="M 14.5,98.5 C 22.6479,100.303 30.8145,101.97 39,103.5C 40.6458,101.859 41.6458,102.193 42,104.5C 43.0113,103.663 44.1779,103.33 45.5,103.5C 45.5,104.167 45.5,104.833 45.5,105.5C 45.5,107.5 45.5,109.5 45.5,111.5C 45.1667,111.5 44.8333,111.5 44.5,111.5C 43.7659,110.292 43.4326,108.959 43.5,107.5C 34.2293,105.683 24.896,104.183 15.5,103C 14.9558,102.283 14.2891,101.783 13.5,101.5C 13.5569,100.391 13.8902,99.391 14.5,98.5 Z"/></g>
<g><path style="opacity:1" fill="#fac272" d="M 214.5,95.5 C 214.806,98.3854 214.473,101.052 213.5,103.5C 212.532,105.607 212.198,107.941 212.5,110.5C 211.5,110.5 210.5,110.5 209.5,110.5C 209.799,108.396 209.466,106.396 208.5,104.5C 207.713,105.242 207.047,106.075 206.5,107C 201.833,107.333 197.167,107.667 192.5,108C 191.929,109.205 191.262,110.372 190.5,111.5C 189.833,108.833 189.167,106.167 188.5,103.5C 187.478,103.855 186.811,104.522 186.5,105.5C 185.539,103.735 185.205,101.735 185.5,99.5C 192.938,97.4428 200.605,96.9428 208.5,98C 209.108,98.8699 209.941,99.3699 211,99.5C 212.412,98.3144 213.579,96.981 214.5,95.5 Z"/></g>
<g><path style="opacity:1" fill="#9c532a" d="M 10.5,64.5 C 10.7896,67.7847 10.123,70.7847 8.5,73.5C 7.3134,82.1625 5.3134,90.6625 2.5,99C 2.66667,101.5 2.83333,104 3,106.5C 3.33333,105.5 3.66667,104.5 4,103.5C 4.92303,105.034 5.42303,106.701 5.5,108.5C 1.51482,119.306 1.51482,129.973 5.5,140.5C 5.44312,141.609 5.10978,142.609 4.5,143.5C 2.36487,137.957 0.698201,132.291 -0.5,126.5C -0.5,118.167 -0.5,109.833 -0.5,101.5C 1.45737,88.673 5.12404,76.3397 10.5,64.5 Z"/></g>
<g><path style="opacity:1" fill="#f9be65" d="M 213.5,103.5 C 213.5,106.167 213.5,108.833 213.5,111.5C 212.662,111.842 212.328,112.508 212.5,113.5C 211.778,113.082 211.278,112.416 211,111.5C 210.55,113.519 209.717,115.352 208.5,117C 202.167,117.667 195.833,117.667 189.5,117C 188.5,116.5 187.5,116 186.5,115.5C 185.757,116.908 184.923,118.241 184,119.5C 184.313,114.764 185.146,110.098 186.5,105.5C 186.811,104.522 187.478,103.855 188.5,103.5C 189.167,106.167 189.833,108.833 190.5,111.5C 191.262,110.372 191.929,109.205 192.5,108C 197.167,107.667 201.833,107.333 206.5,107C 207.047,106.075 207.713,105.242 208.5,104.5C 209.466,106.396 209.799,108.396 209.5,110.5C 210.5,110.5 211.5,110.5 212.5,110.5C 212.198,107.941 212.532,105.607 213.5,103.5 Z"/></g>
<g><path style="opacity:1" fill="#fdf0bb" d="M 13.5,101.5 C 14.2891,101.783 14.9558,102.283 15.5,103C 24.896,104.183 34.2293,105.683 43.5,107.5C 43.4326,108.959 43.7659,110.292 44.5,111.5C 44.5,113.5 44.5,115.5 44.5,117.5C 36.4891,116.244 28.1558,114.911 19.5,113.5C 17.6161,113.716 15.9494,114.383 14.5,115.5C 13.4756,114.148 12.4756,112.815 11.5,111.5C 11.5,109.5 11.5,107.5 11.5,105.5C 12.6737,104.486 13.3404,103.153 13.5,101.5 Z"/></g>
<g><path style="opacity:1" fill="#fde3a6" d="M 11.5,111.5 C 12.4756,112.815 13.4756,114.148 14.5,115.5C 15.9494,114.383 17.6161,113.716 19.5,113.5C 28.1558,114.911 36.4891,116.244 44.5,117.5C 44.5,119.833 44.5,122.167 44.5,124.5C 34.9065,122.275 24.9065,119.942 14.5,117.5C 13.1166,120.076 12.2833,119.742 12,116.5C 11.6174,117.056 11.1174,117.389 10.5,117.5C 10.5,117.167 10.5,116.833 10.5,116.5C 10.2155,114.585 10.5489,112.919 11.5,111.5 Z"/></g>
<g><path style="opacity:1" fill="#f5b25b" d="M 184.5,92.5 C 184.833,92.5 185.167,92.5 185.5,92.5C 185.5,94.8333 185.5,97.1667 185.5,99.5C 185.205,101.735 185.539,103.735 186.5,105.5C 185.146,110.098 184.313,114.764 184,119.5C 184.923,118.241 185.757,116.908 186.5,115.5C 187.5,116 188.5,116.5 189.5,117C 195.833,117.667 202.167,117.667 208.5,117C 209.717,115.352 210.55,113.519 211,111.5C 211.278,112.416 211.778,113.082 212.5,113.5C 212.167,115.5 211.833,117.5 211.5,119.5C 210.326,121.441 208.659,122.941 206.5,124C 207.833,124.667 207.833,125.333 206.5,126C 201.5,126.333 196.5,126.667 191.5,127C 191,127.5 190.5,128 190,128.5C 189.028,126.695 187.861,125.028 186.5,123.5C 185.571,124.689 185.238,126.022 185.5,127.5C 182.801,129.492 179.801,131.159 176.5,132.5C 176.043,134.598 175.043,136.264 173.5,137.5C 174.129,134.603 175.129,131.936 176.5,129.5C 177.931,128.22 178.598,126.553 178.5,124.5C 183.175,114.451 185.175,103.785 184.5,92.5 Z"/></g>
<g><path style="opacity:1" fill="#fbc97e" d="M 44.5,124.5 C 44.5,126.167 44.5,127.833 44.5,129.5C 34.443,128.458 24.6097,126.792 15,124.5C 14.6667,125.167 14.3333,125.833 14,126.5C 13.2917,125.619 12.4584,124.953 11.5,124.5C 10.5318,122.393 10.1984,120.059 10.5,117.5C 11.1174,117.389 11.6174,117.056 12,116.5C 12.2833,119.742 13.1166,120.076 14.5,117.5C 24.9065,119.942 34.9065,122.275 44.5,124.5 Z"/></g>
<g><path style="opacity:1" fill="#f2993e" d="M 213.5,111.5 C 213.244,113.792 213.577,115.959 214.5,118C 213.833,118.333 213.167,118.667 212.5,119C 213.116,120.4 213.449,121.9 213.5,123.5C 211.876,127.746 210.543,132.08 209.5,136.5C 210.033,139.162 210.033,141.662 209.5,144C 209.833,144.5 210.167,145 210.5,145.5C 212.478,143.564 213.811,141.23 214.5,138.5C 215.452,140.045 215.785,141.712 215.5,143.5C 216.5,143.5 217.5,143.5 218.5,143.5C 218.241,141.011 219.241,139.344 221.5,138.5C 221.44,141.341 220.774,144.007 219.5,146.5C 218.001,149.047 216.501,151.714 215,154.5C 214.51,155.793 214.343,157.127 214.5,158.5C 214.737,159.791 214.404,160.791 213.5,161.5C 212.167,162.5 210.833,163.5 209.5,164.5C 208.257,162.422 206.59,160.588 204.5,159C 205.5,158.667 206.5,158.333 207.5,158C 205.593,153.482 204.926,148.648 205.5,143.5C 203.473,143.338 201.473,143.505 199.5,144C 198.101,146.74 196.434,149.24 194.5,151.5C 194.53,150.503 194.03,149.836 193,149.5C 191.208,148.963 189.375,148.63 187.5,148.5C 183.914,149.792 180.248,150.792 176.5,151.5C 175.006,151.291 173.839,150.624 173,149.5C 172.667,149.833 172.333,150.167 172,150.5C 171.508,149.451 171.674,148.451 172.5,147.5C 172.043,146.702 171.376,146.369 170.5,146.5C 171.818,140.85 174.985,138.517 180,139.5C 183.282,139.269 186.449,138.603 189.5,137.5C 189.179,134.12 190.179,133.287 192.5,135C 197.489,135.499 202.489,135.666 207.5,135.5C 206.736,130.86 207.903,126.86 211,123.5C 211.49,122.207 211.657,120.873 211.5,119.5C 211.833,117.5 212.167,115.5 212.5,113.5C 212.328,112.508 212.662,111.842 213.5,111.5 Z"/></g>
<g><path style="opacity:1" fill="#f6a549" d="M 211.5,119.5 C 211.657,120.873 211.49,122.207 211,123.5C 207.903,126.86 206.736,130.86 207.5,135.5C 202.489,135.666 197.489,135.499 192.5,135C 190.179,133.287 189.179,134.12 189.5,137.5C 186.449,138.603 183.282,139.269 180,139.5C 174.985,138.517 171.818,140.85 170.5,146.5C 169.587,148.086 169.587,149.586 170.5,151C 170.167,151.167 169.833,151.333 169.5,151.5C 168.749,150.624 168.249,149.624 168,148.5C 167.292,149.381 166.458,150.047 165.5,150.5C 167.919,145.991 170.586,141.658 173.5,137.5C 175.043,136.264 176.043,134.598 176.5,132.5C 179.801,131.159 182.801,129.492 185.5,127.5C 185.238,126.022 185.571,124.689 186.5,123.5C 187.861,125.028 189.028,126.695 190,128.5C 190.5,128 191,127.5 191.5,127C 196.5,126.667 201.5,126.333 206.5,126C 207.833,125.333 207.833,124.667 206.5,124C 208.659,122.941 210.326,121.441 211.5,119.5 Z"/></g>
<g><path style="opacity:1" fill="#f2973b" d="M 217.5,72.5 C 218.241,77.8717 219.241,83.205 220.5,88.5C 220.003,90.8183 219.67,93.1516 219.5,95.5C 220.5,95.5 221.5,95.5 222.5,95.5C 222.294,98.4951 222.96,101.162 224.5,103.5C 224.5,111.5 224.5,119.5 224.5,127.5C 223.662,127.842 223.328,128.508 223.5,129.5C 221.735,132.123 221.068,135.123 221.5,138.5C 219.241,139.344 218.241,141.011 218.5,143.5C 217.5,143.5 216.5,143.5 215.5,143.5C 215.785,141.712 215.452,140.045 214.5,138.5C 213.811,141.23 212.478,143.564 210.5,145.5C 210.167,145 209.833,144.5 209.5,144C 210.033,141.662 210.033,139.162 209.5,136.5C 210.543,132.08 211.876,127.746 213.5,123.5C 213.449,121.9 213.116,120.4 212.5,119C 213.167,118.667 213.833,118.333 214.5,118C 213.577,115.959 213.244,113.792 213.5,111.5C 213.5,108.833 213.5,106.167 213.5,103.5C 214.473,101.052 214.806,98.3854 214.5,95.5C 215.662,91.0202 215.662,86.6869 214.5,82.5C 214.5,80.5 214.5,78.5 214.5,76.5C 214.007,74.1944 213.674,71.861 213.5,69.5C 213.369,68.7611 213.536,68.0944 214,67.5C 214.206,69.9357 215.373,71.6024 217.5,72.5 Z"/></g>
<g><path style="opacity:1" fill="#f5af59" d="M 44.5,111.5 C 44.8333,111.5 45.1667,111.5 45.5,111.5C 45.5,116.167 45.5,120.833 45.5,125.5C 45.5,128.833 45.5,132.167 45.5,135.5C 43.8762,135.64 42.7096,134.973 42,133.5C 41.6667,134.167 41.3333,134.833 41,135.5C 38.8258,133.824 36.3258,132.824 33.5,132.5C 31.1994,133.396 28.8661,133.562 26.5,133C 21.5198,131.178 16.5198,129.678 11.5,128.5C 11.5,127.167 11.5,125.833 11.5,124.5C 12.4584,124.953 13.2917,125.619 14,126.5C 14.3333,125.833 14.6667,125.167 15,124.5C 24.6097,126.792 34.443,128.458 44.5,129.5C 44.5,127.833 44.5,126.167 44.5,124.5C 44.5,122.167 44.5,119.833 44.5,117.5C 44.5,115.5 44.5,113.5 44.5,111.5 Z"/></g>
<g><path style="opacity:1" fill="#905430" d="M 45.5,105.5 C 45.8333,105.5 46.1667,105.5 46.5,105.5C 46.0568,118.077 48.3902,130.077 53.5,141.5C 51.4172,139.195 49.4172,136.695 47.5,134C 46.9646,131.004 46.2979,128.171 45.5,125.5C 45.5,120.833 45.5,116.167 45.5,111.5C 45.5,109.5 45.5,107.5 45.5,105.5 Z"/></g>
<g><path style="opacity:0.533" fill="#eab389" d="M 223.5,129.5 C 223.324,132.727 222.657,135.727 221.5,138.5C 221.068,135.123 221.735,132.123 223.5,129.5 Z"/></g>
<g><path style="opacity:1" fill="#f4a047" d="M 10.5,116.5 C 10.5,116.833 10.5,117.167 10.5,117.5C 10.1984,120.059 10.5318,122.393 11.5,124.5C 11.5,125.833 11.5,127.167 11.5,128.5C 16.5198,129.678 21.5198,131.178 26.5,133C 28.8661,133.562 31.1994,133.396 33.5,132.5C 36.3258,132.824 38.8258,133.824 41,135.5C 41.3333,134.833 41.6667,134.167 42,133.5C 42.7096,134.973 43.8762,135.64 45.5,135.5C 45.5,138.833 45.5,142.167 45.5,145.5C 43.0246,144.313 42.0246,142.313 42.5,139.5C 39.1662,139.214 35.9995,139.214 33,139.5C 27.1134,137.727 21.1134,135.727 15,133.5C 14.3741,135.991 13.5407,135.991 12.5,133.5C 11.7348,134.612 10.7348,135.279 9.5,135.5C 9.1765,128.978 9.50984,122.645 10.5,116.5 Z"/></g>
<g><path style="opacity:1" fill="#ab5826" d="M 11.5,105.5 C 11.5,107.5 11.5,109.5 11.5,111.5C 10.5489,112.919 10.2155,114.585 10.5,116.5C 9.50984,122.645 9.1765,128.978 9.5,135.5C 10.5077,140.954 11.5077,146.288 12.5,151.5C 12.5,153.167 12.5,154.833 12.5,156.5C 12.7646,160.13 14.0979,163.297 16.5,166C 15.944,166.383 15.6107,166.883 15.5,167.5C 10.2387,160.306 6.57201,152.306 4.5,143.5C 5.10978,142.609 5.44312,141.609 5.5,140.5C 5.71509,138.226 6.38175,136.059 7.5,134C 5.53341,128.666 4.86674,123.333 5.5,118C 6.35424,117.426 7.35424,116.759 8.5,116C 8.90671,112.195 9.90671,108.695 11.5,105.5 Z"/></g>
<g><path style="opacity:1" fill="#f3943e" d="M 45.5,145.5 C 46.8189,147.605 46.4856,149.605 44.5,151.5C 43.5723,149.665 42.4056,149.332 41,150.5C 40.6667,149.5 40.3333,148.5 40,147.5C 37.2628,148.61 34.4294,148.777 31.5,148C 25.8695,145.251 20.7029,143.417 16,142.5C 13.6616,144.961 12.495,147.961 12.5,151.5C 11.5077,146.288 10.5077,140.954 9.5,135.5C 10.7348,135.279 11.7348,134.612 12.5,133.5C 13.5407,135.991 14.3741,135.991 15,133.5C 21.1134,135.727 27.1134,137.727 33,139.5C 35.9995,139.214 39.1662,139.214 42.5,139.5C 42.0246,142.313 43.0246,144.313 45.5,145.5 Z"/></g>
<g><path style="opacity:1" fill="#ef8739" d="M 45.5,135.5 C 46.4037,141.586 47.737,147.586 49.5,153.5C 51.24,157.719 52.5733,162.053 53.5,166.5C 53.1667,166.5 52.8333,166.5 52.5,166.5C 50.9183,163.665 49.585,160.665 48.5,157.5C 44.2357,156.375 39.7357,156.375 35,157.5C 29.021,155.311 22.8543,153.311 16.5,151.5C 15.7492,152.376 15.2492,153.376 15,154.5C 14.3457,153.304 13.8457,153.304 13.5,154.5C 14.0402,155.748 14.7069,156.915 15.5,158C 15.2716,158.399 14.9382,158.565 14.5,158.5C 13.8333,157.833 13.1667,157.167 12.5,156.5C 12.5,154.833 12.5,153.167 12.5,151.5C 12.495,147.961 13.6616,144.961 16,142.5C 20.7029,143.417 25.8695,145.251 31.5,148C 34.4294,148.777 37.2628,148.61 40,147.5C 40.3333,148.5 40.6667,149.5 41,150.5C 42.4056,149.332 43.5723,149.665 44.5,151.5C 46.4856,149.605 46.8189,147.605 45.5,145.5C 45.5,142.167 45.5,138.833 45.5,135.5 Z"/></g>
<g><path style="opacity:1" fill="#e2842f" d="M 170.5,146.5 C 171.376,146.369 172.043,146.702 172.5,147.5C 171.674,148.451 171.508,149.451 172,150.5C 172.333,150.167 172.667,149.833 173,149.5C 173.839,150.624 175.006,151.291 176.5,151.5C 180.248,150.792 183.914,149.792 187.5,148.5C 189.375,148.63 191.208,148.963 193,149.5C 194.03,149.836 194.53,150.503 194.5,151.5C 192.167,154.144 189.834,156.811 187.5,159.5C 184.68,161.319 182.013,163.319 179.5,165.5C 180.752,163.661 180.752,161.828 179.5,160C 180.833,159.667 182.167,159.333 183.5,159C 180.649,156.752 177.315,155.918 173.5,156.5C 173.719,157.675 173.386,158.675 172.5,159.5C 170.932,157.8 169.099,156.466 167,155.5C 166.667,156.167 166.333,156.833 166,157.5C 165.5,156.333 164.667,155.5 163.5,155C 164.582,153.67 165.249,152.17 165.5,150.5C 166.458,150.047 167.292,149.381 168,148.5C 168.249,149.624 168.749,150.624 169.5,151.5C 169.833,151.333 170.167,151.167 170.5,151C 169.587,149.586 169.587,148.086 170.5,146.5 Z"/></g>
<g><path style="opacity:0.439" fill="#e1c5ac" d="M 61.5,153.5 C 64.5,155.833 67.1667,158.5 69.5,161.5C 65.8333,159.833 63.1667,157.167 61.5,153.5 Z"/></g>
<g><path style="opacity:0.784" fill="#edb889" d="M 219.5,146.5 C 218.885,151.048 217.218,155.048 214.5,158.5C 214.343,157.127 214.51,155.793 215,154.5C 216.501,151.714 218.001,149.047 219.5,146.5 Z"/></g>
<g><path style="opacity:1" fill="#ec7b31" d="M 52.5,166.5 C 50.335,167.935 48.835,167.269 48,164.5C 47.3333,165.833 46.3333,166.833 45,167.5C 38.7493,165.147 32.2493,163.814 25.5,163.5C 25.6495,164.552 25.4828,165.552 25,166.5C 22.3308,163.836 19.1641,162.002 15.5,161C 14.7476,160.329 14.4142,159.496 14.5,158.5C 14.9382,158.565 15.2716,158.399 15.5,158C 14.7069,156.915 14.0402,155.748 13.5,154.5C 13.8457,153.304 14.3457,153.304 15,154.5C 15.2492,153.376 15.7492,152.376 16.5,151.5C 22.8543,153.311 29.021,155.311 35,157.5C 39.7357,156.375 44.2357,156.375 48.5,157.5C 49.585,160.665 50.9183,163.665 52.5,166.5 Z"/></g>
<g><path style="opacity:1" fill="#a44f21" d="M 45.5,125.5 C 46.2979,128.171 46.9646,131.004 47.5,134C 49.4172,136.695 51.4172,139.195 53.5,141.5C 55.7411,145.749 58.4077,149.749 61.5,153.5C 63.1667,157.167 65.8333,159.833 69.5,161.5C 70.5,161.833 71.1667,162.5 71.5,163.5C 71.5,163.833 71.5,164.167 71.5,164.5C 69.9397,164.519 68.4397,164.852 67,165.5C 66.0497,164.978 65.2164,164.311 64.5,163.5C 63.5481,165.045 63.2148,166.712 63.5,168.5C 64.5,168.5 65.5,168.5 66.5,168.5C 66.4048,171.272 65.0715,173.272 62.5,174.5C 57.1112,168.392 53.2779,161.392 51,153.5C 50.31,152.262 49.81,152.262 49.5,153.5C 47.737,147.586 46.4037,141.586 45.5,135.5C 45.5,132.167 45.5,128.833 45.5,125.5 Z"/></g>
<g><path style="opacity:1" fill="#f49d48" d="M 209.5,164.5 C 208.717,166.343 208.05,168.343 207.5,170.5C 203.876,171.403 201.876,173.736 201.5,177.5C 201.043,178.298 200.376,178.631 199.5,178.5C 198.386,177.115 197.386,175.615 196.5,174C 197.328,173.085 198.328,172.419 199.5,172C 198.427,170.75 198.427,169.416 199.5,168C 196.077,165.663 193.744,162.496 192.5,158.5C 190.929,159.309 189.262,159.643 187.5,159.5C 189.834,156.811 192.167,154.144 194.5,151.5C 196.434,149.24 198.101,146.74 199.5,144C 201.473,143.505 203.473,143.338 205.5,143.5C 204.926,148.648 205.593,153.482 207.5,158C 206.5,158.333 205.5,158.667 204.5,159C 206.59,160.588 208.257,162.422 209.5,164.5 Z"/></g>
<g><path style="opacity:1" fill="#f4a14e" d="M 199.5,178.5 C 198.448,178.351 197.448,178.517 196.5,179C 198.155,180.444 198.822,182.278 198.5,184.5C 195.167,189.833 190.833,194.167 185.5,197.5C 184.833,197.5 184.167,197.5 183.5,197.5C 183.343,196.127 183.51,194.793 184,193.5C 185.342,194.902 186.176,194.569 186.5,192.5C 185.565,184.87 185.232,177.203 185.5,169.5C 183.533,169.261 181.699,169.594 180,170.5C 179.667,169.833 179.333,169.167 179,168.5C 176.692,169.991 174.192,170.991 171.5,171.5C 174.158,169.505 176.825,167.505 179.5,165.5C 182.013,163.319 184.68,161.319 187.5,159.5C 189.262,159.643 190.929,159.309 192.5,158.5C 193.744,162.496 196.077,165.663 199.5,168C 198.427,169.416 198.427,170.75 199.5,172C 198.328,172.419 197.328,173.085 196.5,174C 197.386,175.615 198.386,177.115 199.5,178.5 Z"/></g>
<g><path style="opacity:0.039" fill="#f4ccab" d="M 71.5,164.5 C 71.5,164.167 71.5,163.833 71.5,163.5C 73.0269,163.427 74.0269,164.094 74.5,165.5C 73.391,165.443 72.391,165.11 71.5,164.5 Z"/></g>
<g><path style="opacity:1" fill="#c86b29" d="M 165.5,150.5 C 165.249,152.17 164.582,153.67 163.5,155C 164.667,155.5 165.5,156.333 166,157.5C 166.333,156.833 166.667,156.167 167,155.5C 169.099,156.466 170.932,157.8 172.5,159.5C 173.386,158.675 173.719,157.675 173.5,156.5C 177.315,155.918 180.649,156.752 183.5,159C 182.167,159.333 180.833,159.667 179.5,160C 180.752,161.828 180.752,163.661 179.5,165.5C 176.825,167.505 174.158,169.505 171.5,171.5C 167.151,173.008 163.151,175.008 159.5,177.5C 158.833,177.5 158.167,177.5 157.5,177.5C 157.215,175.712 157.548,174.045 158.5,172.5C 159.216,173.311 160.05,173.978 161,174.5C 161.209,173.128 162.376,171.961 164.5,171C 161.201,168.881 158.034,169.047 155,171.5C 152.679,171.091 150.513,170.257 148.5,169C 149.381,168.292 150.047,167.458 150.5,166.5C 155.528,161.14 160.528,155.807 165.5,150.5 Z"/></g>
<g><path style="opacity:0.976" fill="#cb8c61" d="M 74.5,165.5 C 78.173,167 81.5063,169 84.5,171.5C 81.7334,171.142 79.0667,170.475 76.5,169.5C 75.8333,168.167 75.1667,166.833 74.5,165.5 Z"/></g>
<g><path style="opacity:1" fill="#d76c2b" d="M 12.5,156.5 C 13.1667,157.167 13.8333,157.833 14.5,158.5C 14.4142,159.496 14.7476,160.329 15.5,161C 19.1641,162.002 22.3308,163.836 25,166.5C 25.4828,165.552 25.6495,164.552 25.5,163.5C 32.2493,163.814 38.7493,165.147 45,167.5C 46.3333,166.833 47.3333,165.833 48,164.5C 48.835,167.269 50.335,167.935 52.5,166.5C 52.8333,166.5 53.1667,166.5 53.5,166.5C 55.8532,168.86 57.8532,171.527 59.5,174.5C 59.2865,176.144 59.6198,177.644 60.5,179C 59.1667,179.333 57.8333,179.667 56.5,180C 57.8882,180.889 57.7215,181.389 56,181.5C 54.2785,181.389 54.1118,180.889 55.5,180C 52.1667,179.333 48.8333,178.667 45.5,178C 43.6667,177.5 42.5,176.333 42,174.5C 41.6667,175.167 41.3333,175.833 41,176.5C 35.6607,175.648 30.494,174.315 25.5,172.5C 25.7947,174.735 25.4614,176.735 24.5,178.5C 22.2713,175.24 20.1046,171.906 18,168.5C 17.3292,167.748 16.4959,167.414 15.5,167.5C 15.6107,166.883 15.944,166.383 16.5,166C 14.0979,163.297 12.7646,160.13 12.5,156.5 Z"/></g>
<g><path style="opacity:1" fill="#c5865d" d="M 15.5,167.5 C 16.4959,167.414 17.3292,167.748 18,168.5C 20.1046,171.906 22.2713,175.24 24.5,178.5C 25.4408,180.05 26.1075,181.716 26.5,183.5C 22.0599,178.722 18.3932,173.388 15.5,167.5 Z"/></g>
<g><path style="opacity:1" fill="#f6a448" d="M 183.5,197.5 C 180.477,199.533 177.477,201.533 174.5,203.5C 169.543,204.989 164.543,206.322 159.5,207.5C 159.838,204.989 159.838,202.655 159.5,200.5C 160.167,199.833 160.833,199.167 161.5,198.5C 159.504,191.555 158.838,184.555 159.5,177.5C 163.151,175.008 167.151,173.008 171.5,171.5C 174.192,170.991 176.692,169.991 179,168.5C 179.333,169.167 179.667,169.833 180,170.5C 181.699,169.594 183.533,169.261 185.5,169.5C 185.232,177.203 185.565,184.87 186.5,192.5C 186.176,194.569 185.342,194.902 184,193.5C 183.51,194.793 183.343,196.127 183.5,197.5 Z"/></g>
<g><path style="opacity:1" fill="#edae6f" d="M 213.5,161.5 C 209.741,170.029 204.741,177.695 198.5,184.5C 198.822,182.278 198.155,180.444 196.5,179C 197.448,178.517 198.448,178.351 199.5,178.5C 200.376,178.631 201.043,178.298 201.5,177.5C 201.876,173.736 203.876,171.403 207.5,170.5C 208.05,168.343 208.717,166.343 209.5,164.5C 210.833,163.5 212.167,162.5 213.5,161.5 Z"/></g>
<g><path style="opacity:1" fill="#b95b24" d="M 71.5,164.5 C 72.391,165.11 73.391,165.443 74.5,165.5C 75.1667,166.833 75.8333,168.167 76.5,169.5C 72.5128,171.041 72.5128,172.875 76.5,175C 75.6433,175.689 74.9767,176.522 74.5,177.5C 75.3194,182.325 75.3194,186.991 74.5,191.5C 66.703,189.646 58.703,188.479 50.5,188C 48.6383,186.634 46.9717,185.134 45.5,183.5C 52.0047,184.504 58.5047,185.838 65,187.5C 66.0217,186.646 66.8551,185.646 67.5,184.5C 65.1149,180.92 62.4482,177.586 59.5,174.5C 57.8532,171.527 55.8532,168.86 53.5,166.5C 52.5733,162.053 51.24,157.719 49.5,153.5C 49.81,152.262 50.31,152.262 51,153.5C 53.2779,161.392 57.1112,168.392 62.5,174.5C 65.0715,173.272 66.4048,171.272 66.5,168.5C 65.5,168.5 64.5,168.5 63.5,168.5C 63.2148,166.712 63.5481,165.045 64.5,163.5C 65.2164,164.311 66.0497,164.978 67,165.5C 68.4397,164.852 69.9397,164.519 71.5,164.5 Z"/></g>
<g><path style="opacity:1" fill="#d46c2c" d="M 76.5,169.5 C 79.0667,170.475 81.7334,171.142 84.5,171.5C 87.2406,171.707 89.5739,172.707 91.5,174.5C 91.8333,175.167 92.1667,175.833 92.5,176.5C 90.8333,176.5 89.1667,176.5 87.5,176.5C 87.5,183.167 87.5,189.833 87.5,196.5C 90.659,196.57 92.3257,198.237 92.5,201.5C 87.7115,199.604 83.3782,196.938 79.5,193.5C 79.7093,192.914 80.0426,192.414 80.5,192C 78.5273,191.505 76.5273,191.338 74.5,191.5C 75.3194,186.991 75.3194,182.325 74.5,177.5C 74.9767,176.522 75.6433,175.689 76.5,175C 72.5128,172.875 72.5128,171.041 76.5,169.5 Z"/></g>
<g><path style="opacity:1" fill="#eb7a32" d="M 92.5,176.5 C 94.7857,176.595 96.7857,177.262 98.5,178.5C 97.0762,181.836 98.0762,184.336 101.5,186C 100.167,187.667 98.8333,189.333 97.5,191C 99.1047,193.733 100.105,196.733 100.5,200C 99.3659,201.016 99.6992,201.683 101.5,202C 99.5273,202.495 97.5273,202.662 95.5,202.5C 94.609,201.89 93.609,201.557 92.5,201.5C 92.3257,198.237 90.659,196.57 87.5,196.5C 87.5,189.833 87.5,183.167 87.5,176.5C 89.1667,176.5 90.8333,176.5 92.5,176.5 Z"/></g>
<g><path style="opacity:1" fill="#aa5826" d="M 150.5,166.5 C 150.047,167.458 149.381,168.292 148.5,169C 150.513,170.257 152.679,171.091 155,171.5C 158.034,169.047 161.201,168.881 164.5,171C 162.376,171.961 161.209,173.128 161,174.5C 160.05,173.978 159.216,173.311 158.5,172.5C 157.548,174.045 157.215,175.712 157.5,177.5C 156.508,177.328 155.842,177.662 155.5,178.5C 149.685,179.399 144.018,180.399 138.5,181.5C 138.167,181.5 137.833,181.5 137.5,181.5C 136.5,181.5 135.5,181.5 134.5,181.5C 132.833,181.5 131.167,181.5 129.5,181.5C 127.167,181.5 124.833,181.5 122.5,181.5C 116.611,180.209 110.611,179.376 104.5,179C 105.793,178.51 107.127,178.343 108.5,178.5C 123.64,178.218 137.64,174.218 150.5,166.5 Z"/></g>
<g><path style="opacity:1" fill="#c56227" d="M 59.5,174.5 C 62.4482,177.586 65.1149,180.92 67.5,184.5C 66.8551,185.646 66.0217,186.646 65,187.5C 58.5047,185.838 52.0047,184.504 45.5,183.5C 43.6214,183.393 43.2881,183.893 44.5,185C 43.6667,185.833 42.8333,186.667 42,187.5C 41,186.167 40,186.167 39,187.5C 37.2417,186.531 36.7417,185.364 37.5,184C 35.312,184.227 32.9787,183.894 30.5,183C 31.5536,181.612 31.7203,180.112 31,178.5C 30.0147,180.175 29.1814,181.842 28.5,183.5C 27.8333,183.5 27.1667,183.5 26.5,183.5C 26.1075,181.716 25.4408,180.05 24.5,178.5C 25.4614,176.735 25.7947,174.735 25.5,172.5C 30.494,174.315 35.6607,175.648 41,176.5C 41.3333,175.833 41.6667,175.167 42,174.5C 42.5,176.333 43.6667,177.5 45.5,178C 48.8333,178.667 52.1667,179.333 55.5,180C 54.1118,180.889 54.2785,181.389 56,181.5C 57.7215,181.389 57.8882,180.889 56.5,180C 57.8333,179.667 59.1667,179.333 60.5,179C 59.6198,177.644 59.2865,176.144 59.5,174.5 Z"/></g>
<g><path style="opacity:1" fill="#fcd28b" d="M 129.5,181.5 C 131.167,181.5 132.833,181.5 134.5,181.5C 133.553,190.78 133.22,200.114 133.5,209.5C 132.178,209.67 131.011,209.337 130,208.5C 129.5,199.506 129.334,190.506 129.5,181.5 Z"/></g>
<g><path style="opacity:1" fill="#fde2a2" d="M 134.5,181.5 C 135.5,181.5 136.5,181.5 137.5,181.5C 137.5,190.833 137.5,200.167 137.5,209.5C 136.167,209.5 134.833,209.5 133.5,209.5C 133.22,200.114 133.553,190.78 134.5,181.5 Z"/></g>
<g><path style="opacity:1" fill="#fdd591" d="M 155.5,178.5 C 156.139,179.097 156.472,179.93 156.5,181C 156.209,190.407 155.209,199.573 153.5,208.5C 151.167,208.5 148.833,208.5 146.5,208.5C 147.471,199.584 147.804,190.584 147.5,181.5C 144.5,181.5 141.5,181.5 138.5,181.5C 144.018,180.399 149.685,179.399 155.5,178.5 Z"/></g>
<g><path style="opacity:1" fill="#b75823" d="M 45.5,183.5 C 46.9717,185.134 48.6383,186.634 50.5,188C 58.703,188.479 66.703,189.646 74.5,191.5C 76.5273,191.338 78.5273,191.505 80.5,192C 80.0426,192.414 79.7093,192.914 79.5,193.5C 83.3782,196.938 87.7115,199.604 92.5,201.5C 93.609,201.557 94.609,201.89 95.5,202.5C 98.2542,203.641 100.921,204.975 103.5,206.5C 97.1748,206.002 91.5082,203.835 86.5,200C 82.0073,199.895 77.674,199.062 73.5,197.5C 69.4291,198.371 65.7625,197.371 62.5,194.5C 61.1451,195.188 60.1451,196.188 59.5,197.5C 57.8452,196.07 55.8452,195.236 53.5,195C 54.8882,194.111 54.7215,193.611 53,193.5C 51.6994,193.96 50.366,194.294 49,194.5C 41.4822,191.993 34.6489,188.326 28.5,183.5C 29.1814,181.842 30.0147,180.175 31,178.5C 31.7203,180.112 31.5536,181.612 30.5,183C 32.9787,183.894 35.312,184.227 37.5,184C 36.7417,185.364 37.2417,186.531 39,187.5C 40,186.167 41,186.167 42,187.5C 42.8333,186.667 43.6667,185.833 44.5,185C 43.2881,183.893 43.6214,183.393 45.5,183.5 Z"/></g>
<g><path style="opacity:1" fill="#fdefb9" d="M 137.5,181.5 C 137.833,181.5 138.167,181.5 138.5,181.5C 141.5,181.5 144.5,181.5 147.5,181.5C 147.804,190.584 147.471,199.584 146.5,208.5C 144.393,209.468 142.059,209.802 139.5,209.5C 138.833,209.5 138.167,209.5 137.5,209.5C 137.5,200.167 137.5,190.833 137.5,181.5 Z"/></g>
<g><path style="opacity:1" fill="#f8b866" d="M 122.5,181.5 C 124.833,181.5 127.167,181.5 129.5,181.5C 129.334,190.506 129.5,199.506 130,208.5C 131.011,209.337 132.178,209.67 133.5,209.5C 134.833,209.5 136.167,209.5 137.5,209.5C 138.167,209.5 138.833,209.5 139.5,209.5C 134.319,210.636 128.985,210.636 123.5,209.5C 123.389,208.883 123.056,208.383 122.5,208C 123.185,201.531 123.851,195.031 124.5,188.5C 123.675,186.199 123.008,183.865 122.5,181.5 Z"/></g>
<g><path style="opacity:1" fill="#f39c44" d="M 91.5,174.5 C 97.2438,176.021 102.91,177.354 108.5,178.5C 107.127,178.343 105.793,178.51 104.5,179C 110.611,179.376 116.611,180.209 122.5,181.5C 123.008,183.865 123.675,186.199 124.5,188.5C 123.851,195.031 123.185,201.531 122.5,208C 123.056,208.383 123.389,208.883 123.5,209.5C 120.615,209.806 117.948,209.473 115.5,208.5C 114.828,207.733 113.995,207.066 113,206.5C 112.088,201.536 111.588,196.536 111.5,191.5C 109.897,191.688 108.563,191.188 107.5,190C 108.167,189.667 108.833,189.333 109.5,189C 105.816,185.56 106.816,183.56 112.5,183C 111.672,182.085 110.672,181.419 109.5,181C 106.167,180.667 102.833,180.333 99.5,180C 100.712,178.893 100.379,178.393 98.5,178.5C 96.7857,177.262 94.7857,176.595 92.5,176.5C 92.1667,175.833 91.8333,175.167 91.5,174.5 Z"/></g>
<g><path style="opacity:1" fill="#f9bd6c" d="M 155.5,178.5 C 155.842,177.662 156.508,177.328 157.5,177.5C 158.167,177.5 158.833,177.5 159.5,177.5C 158.838,184.555 159.504,191.555 161.5,198.5C 160.833,199.167 160.167,199.833 159.5,200.5C 159.838,202.655 159.838,204.989 159.5,207.5C 157.5,207.833 155.5,208.167 153.5,208.5C 155.209,199.573 156.209,190.407 156.5,181C 156.472,179.93 156.139,179.097 155.5,178.5 Z"/></g>
<g><path style="opacity:1" fill="#a85425" d="M 26.5,183.5 C 27.1667,183.5 27.8333,183.5 28.5,183.5C 34.6489,188.326 41.4822,191.993 49,194.5C 50.366,194.294 51.6994,193.96 53,193.5C 54.7215,193.611 54.8882,194.111 53.5,195C 55.8452,195.236 57.8452,196.07 59.5,197.5C 57.337,198.469 55.0037,199.302 52.5,200C 53.2438,201.039 54.2438,201.539 55.5,201.5C 55.4413,203.722 54.2747,204.722 52,204.5C 49.2915,203.891 46.7915,202.891 44.5,201.5C 36.8547,197.188 30.8547,191.188 26.5,183.5 Z"/></g>
<g><path style="opacity:1" fill="#f18c3a" d="M 98.5,178.5 C 100.379,178.393 100.712,178.893 99.5,180C 102.833,180.333 106.167,180.667 109.5,181C 110.672,181.419 111.672,182.085 112.5,183C 106.816,183.56 105.816,185.56 109.5,189C 108.833,189.333 108.167,189.667 107.5,190C 108.563,191.188 109.897,191.688 111.5,191.5C 111.588,196.536 112.088,201.536 113,206.5C 113.995,207.066 114.828,207.733 115.5,208.5C 111.476,207.962 107.476,207.295 103.5,206.5C 100.921,204.975 98.2542,203.641 95.5,202.5C 97.5273,202.662 99.5273,202.495 101.5,202C 99.6992,201.683 99.3659,201.016 100.5,200C 100.105,196.733 99.1047,193.733 97.5,191C 98.8333,189.333 100.167,187.667 101.5,186C 98.0762,184.336 97.0762,181.836 98.5,178.5 Z"/></g>
<g><path style="opacity:0.345" fill="#d69e6a" d="M 183.5,197.5 C 184.167,197.5 184.833,197.5 185.5,197.5C 182.554,200.313 179.221,202.646 175.5,204.5C 175.5,203.833 175.167,203.5 174.5,203.5C 177.477,201.533 180.477,199.533 183.5,197.5 Z"/></g>
<g><path style="opacity:1" fill="#a14c1e" d="M 59.5,199.5 C 66.2289,198.662 72.3956,199.995 78,203.5C 79.0195,202.313 80.1861,201.313 81.5,200.5C 84.8794,201.85 87.8794,203.683 90.5,206C 89.8333,206.333 89.1667,206.667 88.5,207C 90.1749,207.985 91.8415,208.819 93.5,209.5C 89.373,211.222 85.2064,211.555 81,210.5C 79.8061,211.43 78.4728,212.097 77,212.5C 72.9148,210.956 68.9148,209.289 65,207.5C 63.0164,207.741 61.1831,208.408 59.5,209.5C 57.4835,208.826 55.8168,207.659 54.5,206C 56.8156,205.511 59.1489,204.844 61.5,204C 60.4178,202.67 59.7512,201.17 59.5,199.5 Z"/></g>
<g><path style="opacity:1" fill="#a8531f" d="M 103.5,206.5 C 107.476,207.295 111.476,207.962 115.5,208.5C 117.948,209.473 120.615,209.806 123.5,209.5C 128.985,210.636 134.319,210.636 139.5,209.5C 142.059,209.802 144.393,209.468 146.5,208.5C 148.833,208.5 151.167,208.5 153.5,208.5C 155.5,208.167 157.5,207.833 159.5,207.5C 164.543,206.322 169.543,204.989 174.5,203.5C 175.167,203.5 175.5,203.833 175.5,204.5C 170.051,208.558 164.051,211.558 157.5,213.5C 155.932,212.527 154.265,212.36 152.5,213C 152.833,213.333 153.167,213.667 153.5,214C 148.633,215.769 143.633,216.936 138.5,217.5C 139.398,216.842 140.398,216.176 141.5,215.5C 139.891,213.06 137.557,211.893 134.5,212C 128.82,211.445 123.154,211.612 117.5,212.5C 110.091,211.679 102.757,210.679 95.5,209.5C 94.8333,209.5 94.1667,209.5 93.5,209.5C 91.8415,208.819 90.1749,207.985 88.5,207C 89.1667,206.667 89.8333,206.333 90.5,206C 87.8794,203.683 84.8794,201.85 81.5,200.5C 80.1861,201.313 79.0195,202.313 78,203.5C 72.3956,199.995 66.2289,198.662 59.5,199.5C 57.6203,199.229 56.287,199.896 55.5,201.5C 54.2438,201.539 53.2438,201.039 52.5,200C 55.0037,199.302 57.337,198.469 59.5,197.5C 60.1451,196.188 61.1451,195.188 62.5,194.5C 65.7625,197.371 69.4291,198.371 73.5,197.5C 77.674,199.062 82.0073,199.895 86.5,200C 91.5082,203.835 97.1748,206.002 103.5,206.5 Z"/></g>
<g><path style="opacity:1" fill="#9e4b1d" d="M 95.5,209.5 C 102.757,210.679 110.091,211.679 117.5,212.5C 123.154,211.612 128.82,211.445 134.5,212C 137.557,211.893 139.891,213.06 141.5,215.5C 140.398,216.176 139.398,216.842 138.5,217.5C 135.127,217.802 131.96,218.802 129,220.5C 123.134,218.725 117.634,219.392 112.5,222.5C 108.576,221.602 104.41,220.602 100,219.5C 95.5123,220.333 91.0123,220.5 86.5,220C 86.1667,219.667 85.8333,219.333 85.5,219C 86.8333,218.667 88.1667,218.333 89.5,218C 87.1224,217.026 87.4557,216.359 90.5,216C 89.552,215.517 88.552,215.351 87.5,215.5C 89.6353,213.631 92.3019,212.964 95.5,213.5C 95.5,212.167 95.5,210.833 95.5,209.5 Z"/></g>
<g><path style="opacity:1" fill="#994a20" d="M 59.5,199.5 C 59.7512,201.17 60.4178,202.67 61.5,204C 59.1489,204.844 56.8156,205.511 54.5,206C 55.8168,207.659 57.4835,208.826 59.5,209.5C 61.1831,208.408 63.0164,207.741 65,207.5C 68.9148,209.289 72.9148,210.956 77,212.5C 78.4728,212.097 79.8061,211.43 81,210.5C 85.2064,211.555 89.373,211.222 93.5,209.5C 94.1667,209.5 94.8333,209.5 95.5,209.5C 95.5,210.833 95.5,212.167 95.5,213.5C 92.3019,212.964 89.6353,213.631 87.5,215.5C 85.4973,217.982 82.8306,218.982 79.5,218.5C 79.6495,217.448 79.4828,216.448 79,215.5C 76.9361,216.591 74.7695,216.758 72.5,216C 70.1703,214.925 68.837,213.425 68.5,211.5C 67.1502,212.95 65.4835,213.617 63.5,213.5C 56.3141,210.746 49.9808,206.746 44.5,201.5C 46.7915,202.891 49.2915,203.891 52,204.5C 54.2747,204.722 55.4413,203.722 55.5,201.5C 56.287,199.896 57.6203,199.229 59.5,199.5 Z"/></g>
<g><path style="opacity:0.839" fill="#97502a" d="M 87.5,215.5 C 88.552,215.351 89.552,215.517 90.5,216C 87.4557,216.359 87.1224,217.026 89.5,218C 88.1667,218.333 86.8333,218.667 85.5,219C 85.8333,219.333 86.1667,219.667 86.5,220C 91.0123,220.5 95.5123,220.333 100,219.5C 104.41,220.602 108.576,221.602 112.5,222.5C 117.634,219.392 123.134,218.725 129,220.5C 131.96,218.802 135.127,217.802 138.5,217.5C 143.633,216.936 148.633,215.769 153.5,214C 153.167,213.667 152.833,213.333 152.5,213C 154.265,212.36 155.932,212.527 157.5,213.5C 156.4,214.558 155.066,215.392 153.5,216C 143.742,218.688 134.076,221.188 124.5,223.5C 114.167,223.5 103.833,223.5 93.5,223.5C 83.187,221.173 73.187,217.84 63.5,213.5C 65.4835,213.617 67.1502,212.95 68.5,211.5C 68.837,213.425 70.1703,214.925 72.5,216C 74.7695,216.758 76.9361,216.591 79,215.5C 79.4828,216.448 79.6495,217.448 79.5,218.5C 82.8306,218.982 85.4973,217.982 87.5,215.5 Z"/></g>
</svg>
